HIERARCHY
ROOT hip
{
  OFFSET 0 0 0
  CHANNELS 6 Xposition Yposition Zposition Zrotation Yrotation Xrotation
  JOINT abdomen
  {
    OFFSET 0 20.6881 -0.73152
    CHANNELS 3 Zrotation Xrotation Yrotation
    JOINT chest
    {
      OFFSET 0 11.7043 -0.48768
      CHANNELS 3 Zrotation Xrotation Yrotation
      JOINT neck
      {
        OFFSET 0 22.1894 -2.19456
        CHANNELS 3 Zrotation Xrotation Yrotation
        JOINT head
        {
          OFFSET -0.24384 7.07133 1.2192
          CHANNELS 3 Zrotation Xrotation Yrotation
          JOINT leftEye
          {
            OFFSET 4.14528 8.04674 8.04672
            CHANNELS 3 Zrotation Xrotation Yrotation
            End Site
            {
              OFFSET 1 0 0
            }
          }
          JOINT rightEye
          {
            OFFSET -3.6576 8.04674 8.04672
            CHANNELS 3 Zrotation Xrotation Yrotation
            End Site
            {
              OFFSET 1 0 0
            }
          }
        }
      }
      JOINT rCollar
      {
        OFFSET -2.68224 19.2634 -4.8768
        CHANNELS 3 Zrotation Xrotation Yrotation
        JOINT rShldr
        {
          OFFSET -8.77824 -1.95073 1.46304
          CHANNELS 3 Zrotation Xrotation Yrotation
          JOINT rForeArm
          {
            OFFSET -28.1742 -1.7115 0.48768
            CHANNELS 3 Zrotation Xrotation Yrotation
            JOINT rHand
            {
              OFFSET -22.5879 0.773209 7.07136
              CHANNELS 3 Zrotation Xrotation Yrotation
              JOINT rThumb1
              {
                OFFSET -1.2192 -0.487915 3.41376
                CHANNELS 3 Zrotation Xrotation Yrotation
                JOINT rThumb2
                {
                  OFFSET -3.37035 -0.52449 3.41376
                  CHANNELS 3 Zrotation Xrotation Yrotation
                  End Site
                  {
                    OFFSET -1.78271 -1.18214 1.43049
                  }
                }
              }
              JOINT rIndex1
              {
                OFFSET -7.75947 0.938293 5.60832
                CHANNELS 3 Zrotation Xrotation Yrotation
                JOINT rIndex2
                {
                  OFFSET -2.54057 -0.884171 1.56538
                  CHANNELS 3 Zrotation Xrotation Yrotation
                  End Site
                  {
                    OFFSET -1.62519 -0.234802 1.16502
                  }
                }
              }
              JOINT rMid1
              {
                OFFSET -8.24714 1.18213 3.41376
                CHANNELS 3 Zrotation Xrotation Yrotation
                JOINT rMid2
                {
                  OFFSET -3.10165 -0.590103 1.0647
                  CHANNELS 3 Zrotation Xrotation Yrotation
                  End Site
                  {
                    OFFSET -2.48547 -0.328903 0.83742
                  }
                }
              }
              JOINT rRing1
              {
                OFFSET -8.82822 0.546677 1.51678
                CHANNELS 3 Zrotation Xrotation Yrotation
                JOINT rRing2
                {
                  OFFSET -2.60934 -0.819778 -0.0198488
                  CHANNELS 3 Zrotation Xrotation Yrotation
                  End Site
                  {
                    OFFSET -2.33842 -0.294052 0.168128
                  }
                }
              }
              JOINT rPinky1
              {
                OFFSET -8.27202 -0.0477905 -0.4584
                CHANNELS 3 Zrotation Xrotation Yrotation
                JOINT rPinky2
                {
                  OFFSET -1.82734 -0.647385 -0.700984
                  CHANNELS 3 Zrotation Xrotation Yrotation
                  End Site
                  {
                    OFFSET -1.69225 -0.51767 -0.607171
                  }
                }
              }
            }
          }
        }
      }
      JOINT lCollar
      {
        OFFSET 2.68224 19.2634 -4.8768
        CHANNELS 3 Zrotation Xrotation Yrotation
        JOINT lShldr
        {
          OFFSET 8.77824 -1.95073 1.46304
          CHANNELS 3 Zrotation Xrotation Yrotation
          JOINT lForeArm
          {
            OFFSET 28.1742 -1.7115 0.48768
            CHANNELS 3 Zrotation Xrotation Yrotation
            JOINT lHand
            {
              OFFSET 22.5879 0.773209 7.07136
              CHANNELS 3 Zrotation Xrotation Yrotation
              JOINT lThumb1
              {
                OFFSET 1.2192 -0.487915 3.41376
                CHANNELS 3 Zrotation Xrotation Yrotation
                JOINT lThumb2
                {
                  OFFSET 3.37035 -0.52449 3.41376
                  CHANNELS 3 Zrotation Xrotation Yrotation
                  End Site
                  {
                    OFFSET 1.78271 -1.18214 1.43049
                  }
                }
              }
              JOINT lIndex1
              {
                OFFSET 7.75947 0.938293 5.60832
                CHANNELS 3 Zrotation Xrotation Yrotation
                JOINT lIndex2
                {
                  OFFSET 2.54057 -0.884171 1.56538
                  CHANNELS 3 Zrotation Xrotation Yrotation
                  End Site
                  {
                    OFFSET 1.62519 -0.234802 1.16502
                  }
                }
              }
              JOINT lMid1
              {
                OFFSET 8.24714 1.18213 3.41376
                CHANNELS 3 Zrotation Xrotation Yrotation
                JOINT lMid2
                {
                  OFFSET 3.10165 -0.590103 1.0647
                  CHANNELS 3 Zrotation Xrotation Yrotation
                  End Site
                  {
                    OFFSET 2.48547 -0.328903 0.83742
                  }
                }
              }
              JOINT lRing1
              {
                OFFSET 8.82822 0.546677 1.51678
                CHANNELS 3 Zrotation Xrotation Yrotation
                JOINT lRing2
                {
                  OFFSET 2.60934 -0.819778 -0.0198488
                  CHANNELS 3 Zrotation Xrotation Yrotation
                  End Site
                  {
                    OFFSET 2.33842 -0.294052 0.168128
                  }
                }
              }
              JOINT lPinky1
              {
                OFFSET 8.27202 -0.0477905 -0.4584
                CHANNELS 3 Zrotation Xrotation Yrotation
                JOINT lPinky2
                {
                  OFFSET 1.82734 -0.647385 -0.700984
                  CHANNELS 3 Zrotation Xrotation Yrotation
                  End Site
                  {
                    OFFSET 1.69225 -0.51767 -0.607171
                  }
                }
              }
            }
          }
        }
      }
    }
  }
  JOINT rButtock
  {
    OFFSET -8.77824 4.35084 1.2192
    CHANNELS 3 Zrotation Xrotation Yrotation
    JOINT rThigh
    {
      OFFSET 0 -1.70687 -2.19456
      CHANNELS 3 Zrotation Xrotation Yrotation
      JOINT rShin
      {
        OFFSET 0 -36.8199 0.73152
        CHANNELS 3 Zrotation Xrotation Yrotation
        JOINT rFoot
        {
          OFFSET 0.73152 -45.1104 -5.12064
          CHANNELS 3 Zrotation Xrotation Yrotation
          End Site
          {
            OFFSET -1.1221 -3.69964 12.103
          }
        }
      }
    }
  }
  JOINT lButtock
  {
    OFFSET 8.77824 4.35084 1.2192
    CHANNELS 3 Zrotation Xrotation Yrotation
    JOINT lThigh
    {
      OFFSET 0 -1.70687 -2.19456
      CHANNELS 3 Zrotation Xrotation Yrotation
      JOINT lShin
      {
        OFFSET 0 -36.8199 0.73152
        CHANNELS 3 Zrotation Xrotation Yrotation
        JOINT lFoot
        {
          OFFSET -0.73152 -45.1104 -5.12064
          CHANNELS 3 Zrotation Xrotation Yrotation
          End Site
          {
            OFFSET 1.1221 -3.69964 12.103
          }
        }
      }
    }
  }
}
MOTION
Frames:	4
Frame Time:	0.03333
65.16964752164753 75.44488987374851 46.450690156298094 -160.06777954101562 69.57508850097656 -167.7668914794922 -4.90864372253418 15.219486236572266 10.874848365783691 1.0536293983459473 -10.52506160736084 3.3360488414764404 -9.606017112731934 13.893566131591797 -11.3521089553833 21.32953453063965 -27.105987548828125 -15.708145141601562 0.11455001682043076 -0.01792050711810589 -0.5116589069366455 0.466622918844223 -0.23518811166286469 -0.3237868547439575 0.3029542863368988 0.011302376165986061 -0.03729509562253952 28.034860610961914 7.589827537536621 29.989900588989258 -17.766769409179688 -9.426078796386719 35.463478088378906 -0.9395100474357605 22.3734188079834 3.889827251434326 0.632880449295044 -0.4415459632873535 0.1582459956407547 -0.49850672483444214 0.5122025609016418 0.3088378310203552 0.07757342606782913 1.206247091293335 0.193913072347641 7.611663818359375 5.526793003082275 -1.301416039466858 0.8192573189735413 -0.3622072637081146 0.9624923467636108 2.182805061340332 0.22344791889190674 -0.4613683819770813 -0.10967545956373215 -0.23231567442417145 0.7382146120071411 9.750574111938477 0.7605094909667969 -0.3704065978527069 0.4002390503883362 -0.01054789125919342 0.08178873360157013 3.0825188159942627 -0.37502598762512207 -0.15840725600719452 0.5642626881599426 -0.6698286533355713 -0.6273712515830994 -108.55274963378906 49.33783721923828 43.3074836730957 30.211971282958984 -43.52669906616211 -86.41776275634766 0.2327120304107666 -26.394229888916016 4.0403056144714355 -0.1412070244550705 -0.012481091544032097 -0.6724960207939148 0.34018197655677795 0.01953657530248165 -0.7088432908058167 0.2679691016674042 -0.038332194089889526 0.4828801453113556 -7.980317115783691 6.1707072257995605 -0.30892032384872437 0.13230179250240326 0.6827324628829956 0.07349629700183868 -2.494036912918091 0.3230334222316742 -0.4816662669181824 0.21536746621131897 0.9582520723342896 -0.3273160755634308 -10.07950496673584 0.7850911617279053 -0.28150221705436707 -0.038880594074726105 -0.5451248288154602 0.325190007686615 -2.7099783420562744 -1.1473640203475952 0.31092190742492676 0.3657127916812897 -1.070815920829773 0.7612909078598022 -16.38739585876465 -32.46976089477539 -37.0257682800293 -2.9207394123077393 55.15061569213867 3.185124397277832 -8.394916534423828 -5.40693473815918 -26.8164005279541 -0.6548131704330444 0.5792623162269592 0.047057148069143295 20.532079696655273 -40.98460006713867 3.412092924118042 2.3751678466796875 68.73174285888672 -1.8390616178512573 2.1311533451080322 -0.42095622420310974 20.43688201904297
66.3462118526491 75.13697811577516 47.235970345387685 -149.79051208496094 74.09796142578125 -167.65269470214844 -3.8833999633789062 15.316638946533203 11.80244255065918 0.39136144518852234 -10.701289176940918 3.5716147422790527 -9.02139949798584 13.628215789794922 -10.459004402160645 20.602481842041016 -27.726438522338867 -13.850366592407227 0.08815733343362808 -0.009259143844246864 -0.7979171872138977 0.10058868676424026 0.05470235273241997 -0.1964729279279709 0.6885666847229004 -0.058109018951654434 0.10193207114934921 25.6310977935791 5.839232921600342 33.05744934082031 -17.48040008544922 -9.322775840759277 34.65859603881836 -0.8575007915496826 19.74241828918457 3.360278844833374 0.7936670780181885 -0.2906062602996826 0.13565655052661896 -0.5000442862510681 0.3851909041404724 0.22951841354370117 -0.1142866387963295 1.2556288242340088 0.6425824165344238 7.560144901275635 5.396193981170654 -1.0250266790390015 0.7685185670852661 -0.028921034187078476 1.0668511390686035 2.4844443798065186 0.09216058999300003 -0.7142223715782166 0.09166077524423599 -0.1328245848417282 0.7274718284606934 9.7008638381958 0.9209126830101013 -0.32855644822120667 0.6571171283721924 0.14659371972084045 0.14025673270225525 3.0512728691101074 -0.6247601509094238 0.0028262354899197817 0.5626299977302551 -0.5287765860557556 -0.7140697836875916 -107.66633605957031 50.379493713378906 42.09025955200195 30.364341735839844 -43.57759094238281 -85.66828155517578 0.2645168602466583 -23.10040855407715 3.626164436340332 0.03171241283416748 -0.2951461374759674 -0.3553568124771118 0.38611483573913574 0.1952073872089386 -0.5442158579826355 0.4317750334739685 0.04921868443489075 0.3324728012084961 -7.712504863739014 6.199985980987549 -0.49090275168418884 0.007481898181140423 0.822695255279541 -0.15001225471496582 -2.1146514415740967 0.4246900677680969 -0.49935975670814514 0.37438467144966125 1.1409530639648438 -0.11805459856987 -10.0077543258667 0.8634335398674011 0.006872069556266069 -0.19545020163059235 -0.6085973381996155 0.5297635197639465 -2.6618666648864746 -1.037467360496521 0.3414331376552582 0.2933498024940491 -1.307276725769043 0.7331327795982361 -15.8919677734375 -32.35232925415039 -38.63185119628906 -3.540078639984131 55.693878173828125 3.6427242755889893 -8.502056121826172 -5.290875434875488 -26.944183349609375 -0.6554628014564514 0.84196537733078 0.149381622672081 22.213523864746094 -42.64021682739258 5.106878280639648 3.3931961059570312 72.04109191894531 -3.0796008110046387 1.845262050628662 0.8326448798179626 19.97635841369629
67.49898535411106 74.99038176561918 47.941313362165175 -134.82965087890625 77.053466796875 -168.57908630371094 -3.373500347137451 15.551200866699219 13.223844528198242 -0.3871462643146515 -10.662956237792969 3.943782329559326 -8.634355545043945 13.526803970336914 -9.823485374450684 19.684146881103516 -28.286672592163086 -12.662705421447754 0.08700846135616302 0.011384367942810059 -1.0255310535430908 -0.3576076030731201 0.24805669486522675 -0.0918678566813469 1.1471489667892456 -0.21440276503562927 0.25572386384010315 23.325456619262695 3.3455395698547363 36.380828857421875 -17.083358764648438 -9.150318145751953 33.26738357543945 -0.6655099391937256 17.021347045898438 2.652865171432495 0.8508837819099426 -0.14643533527851105 0.05325809121131897 -0.47971123456954956 0.10303594917058945 0.11255267262458801 -0.4062301516532898 1.2453011274337769 1.0535374879837036 7.528021812438965 5.360477924346924 -0.5424966812133789 0.660844087600708 0.31368115544319153 0.9226576089859009 2.8826215267181396 0.12495739012956619 -0.9566861987113953 0.2519198954105377 -0.1254279613494873 0.5955575108528137 9.74637222290039 0.9756404161453247 -0.3011440336704254 0.867975652217865 0.31365635991096497 0.2405264973640442 2.908604383468628 -0.8484710454940796 0.3575751483440399 0.5081624388694763 -0.36321693658828735 -0.7148503065109253 -107.77167510986328 51.01655578613281 42.77938461303711 30.17909049987793 -43.50632095336914 -85.28015899658203 0.3799994885921478 -19.629690170288086 3.2137610912323 0.23512157797813416 -0.5743645429611206 -0.12242679297924042 0.28844374418258667 0.3693252503871918 -0.26065459847450256 0.5834628343582153 0.3283505141735077 0.18761512637138367 -7.390754222869873 6.136471748352051 -0.6669231057167053 -0.18269135057926178 0.8861905932426453 -0.3335345685482025 -1.795533537864685 0.5080256462097168 -0.5079660415649414 0.4962739050388336 1.2819863557815552 0.1962519735097885 -9.91637134552002 0.914881706237793 0.22126814723014832 -0.3889040946960449 -0.6277006268501282 0.615067183971405 -2.646584987640381 -0.8645977973937988 0.2507832646369934 0.22006358206272125 -1.3798354864120483 0.660781979560852 -15.428766250610352 -32.25050735473633 -39.56546401977539 -3.992931604385376 56.240386962890625 4.026218414306641 -8.527979850769043 -4.943258285522461 -26.3724365234375 -0.5582659840583801 0.9664283990859985 0.1493826061487198 22.530323028564453 -43.10081481933594 5.567549705505371 4.273695468902588 73.99654388427734 -4.321524143218994 1.832688331604004 1.957560420036316 19.56730079650879
68.63644791933137 75.03589131605897 48.50537354243499 -114.64761352539062 78.10383605957031 -169.97528076171875 -2.967806339263916 15.664249420166016 14.70017147064209 -1.051331639289856 -10.49732780456543 4.2433319091796875 -8.33661937713623 13.431848526000977 -9.206531524658203 18.51551055908203 -28.54994773864746 -11.645357131958008 0.18614591658115387 0.07663369923830032 -1.1443116664886475 -0.7323213219642639 0.26122912764549255 -0.04452173784375191 1.5500059127807617 -0.46224984526634216 0.40782758593559265 21.053810119628906 1.2957828044891357 39.77519989013672 -16.978931427001953 -9.150156021118164 32.565513610839844 -0.38669487833976746 13.51207447052002 1.8014575242996216 0.8741040825843811 -0.0028452530968934298 -0.11483189463615417 -0.4051840305328369 -0.2432640939950943 0.06319459527730942 -0.706179141998291 1.1299054622650146 1.3919010162353516 7.566721439361572 5.344928741455078 -0.02131589502096176 0.46123480796813965 0.624672532081604 0.5317533016204834 3.274582624435425 0.32905346155166626 -1.0908259153366089 0.3378465473651886 -0.210016667842865 0.3605978190898895 9.971372604370117 1.058323621749878 -0.22822651267051697 1.0178831815719604 0.4029298424720764 0.33835867047309875 2.728999614715576 -0.9911370873451233 0.7141425609588623 0.40119653940200806 -0.1384282112121582 -0.6702868342399597 -108.42798614501953 52.1518440246582 43.74444580078125 29.629343032836914 -43.18032455444336 -85.0642318725586 0.5290706753730774 -15.63632869720459 2.649176836013794 0.3600553572177887 -0.7498610019683838 -0.08110947906970978 0.05601518601179123 0.5142314434051514 0.1428167223930359 0.6131846904754639 0.7300949692726135 -0.00047833137796260417 -7.049524784088135 5.897358417510986 -0.7534815669059753 -0.38891565799713135 0.9038532972335815 -0.44937798380851746 -1.6239736080169678 0.6182987689971924 -0.44049933552742004 0.5782936215400696 1.3747690916061401 0.5156833529472351 -9.782347679138184 0.9941129088401794 0.3170969784259796 -0.5270819067955017 -0.5923359394073486 0.6819155216217041 -2.5552985668182373 -0.6302396655082703 0.0965050756931305 0.17016766965389252 -1.2518928050994873 0.5857405066490173 -14.731822967529297 -31.818988800048828 -39.606590270996094 -4.021149158477783 56.71220016479492 4.018104076385498 -8.652113914489746 -4.880344390869141 -25.405303955078125 -0.4329127073287964 0.9194750189781189 0.042957838624715805 22.62980842590332 -43.53887939453125 5.956703186035156 5.04058313369751 75.26392364501953 -5.508033752441406 1.928196668624878 2.91625714302063 18.531091690063477
